{"accessors" : [{"bufferView" : 0, "byteOffset" : 0, "componentType" : 5123, "count" : 3600, "type" : "SCALAR", "max" : [999], "min" : [0]}, {"bufferView" : 1, "byteOffset" : 0, "componentType" : 5126, "count" : 1000, "type" : "VEC3", "max" : [79.51223754882812, 38.48810577392578, 15.000000953674316], "min" : [-75.49263000488281, -38.48808670043945, 2.397927801212063E-06], "name" : "POSITION"}, {"bufferView" : 1, "byteOffset" : 12, "componentType" : 5126, "count" : 1000, "type" : "VEC2", "max" : [1.8820241689682007, 1.2825772762298584], "min" : [-0.8820242881774902, -0.234605073928833], "name" : "TEXCOORD_0"}, {"bufferView" : 0, "byteOffset" : 7200, "componentType" : 5123, "count" : 13056, "type" : "SCALAR", "max" : [3523], "min" : [0]}, {"bufferView" : 2, "byteOffset" : 0, "componentType" : 5126, "count" : 3524, "type" : "VEC3", "max" : [39.0587158203125, 8.279122352600098, 38.18525695800781], "min" : [-116.05297088623047, -2.829645872116089, 0], "name" : "POSITION"}, {"bufferView" : 2, "byteOffset" : 12, "componentType" : 5126, "count" : 3524, "type" : "VEC2", "max" : [1.8981523513793945, 0.9726256728172302], "min" : [-0.8977673053741455, -0.2716941833496094], "name" : "TEXCOORD_0"}, {"bufferView" : 0, "byteOffset" : 33312, "componentType" : 5123, "count" : 38340, "type" : "SCALAR", "max" : [9893], "min" : [0]}, {"bufferView" : 3, "byteOffset" : 0, "componentType" : 5126, "count" : 9894, "type" : "VEC3", "max" : [38.924076080322266, 7.001229763031006, 44.03262710571289], "min" : [-39.19158935546875, -7.816993236541748, 0.039863474667072296], "name" : "POSITION"}, {"bufferView" : 3, "byteOffset" : 12, "componentType" : 5126, "count" : 9894, "type" : "VEC2", "max" : [1.8761882781982422, 0.6062415242195129], "min" : [-0.8768706321716309, -0.2797834873199463], "name" : "TEXCOORD_0"}, {"bufferView" : 0, "byteOffset" : 109992, "componentType" : 5123, "count" : 20448, "type" : "SCALAR", "max" : [6320], "min" : [0]}, {"bufferView" : 4, "byteOffset" : 0, "componentType" : 5126, "count" : 6321, "type" : "VEC3", "max" : [7.541255474090576, 38.933040618896484, 44.83453369140625], "min" : [-7.413439750671387, -39.078468322753906, 0.18915343284606934], "name" : "POSITION"}, {"bufferView" : 4, "byteOffset" : 12, "componentType" : 5126, "count" : 6321, "type" : "VEC2", "max" : [2.106752872467041, 1.2751821279525757], "min" : [-1.1051230430603027, -0.26497113704681396], "name" : "TEXCOORD_0"}, {"bufferView" : 0, "byteOffset" : 150888, "componentType" : 5123, "count" : 9024, "type" : "SCALAR", "max" : [2530], "min" : [0]}, {"bufferView" : 5, "byteOffset" : 0, "componentType" : 5126, "count" : 2531, "type" : "VEC3", "max" : [38.973514556884766, 31.775054931640625, 14.913434982299805], "min" : [-38.95622253417969, -32.185237884521484, -0.1559429168701172], "name" : "POSITION"}, {"bufferView" : 5, "byteOffset" : 12, "componentType" : 5126, "count" : 2531, "type" : "VEC2", "max" : [1.8851443529129028, 1.2186903953552246], "min" : [-0.8856064081192017, -0.03815650939941406], "name" : "TEXCOORD_0"}, {"bufferView" : 0, "byteOffset" : 168936, "componentType" : 5123, "count" : 9024, "type" : "SCALAR", "max" : [2521], "min" : [0]}, {"bufferView" : 6, "byteOffset" : 0, "componentType" : 5126, "count" : 2522, "type" : "VEC3", "max" : [38.9735107421875, 31.775070190429688, 14.800661087036133], "min" : [-38.95622253417969, -31.775053024291992, -0.0491485595703125], "name" : "POSITION"}, {"bufferView" : 6, "byteOffset" : 12, "componentType" : 5126, "count" : 2522, "type" : "VEC2", "max" : [1.8987797498703003, 1.2105880975723267], "min" : [-0.898259162902832, -0.038156986236572266], "name" : "TEXCOORD_0"}, {"bufferView" : 0, "byteOffset" : 186984, "componentType" : 5123, "count" : 20448, "type" : "SCALAR", "max" : [6345], "min" : [0]}, {"bufferView" : 7, "byteOffset" : 0, "componentType" : 5126, "count" : 6346, "type" : "VEC3", "max" : [7.543254852294922, 38.933040618896484, 45.0146369934082], "min" : [-7.415478706359863, -39.07847595214844, 0.18919876217842102], "name" : "POSITION"}, {"bufferView" : 7, "byteOffset" : 12, "componentType" : 5126, "count" : 6346, "type" : "VEC2", "max" : [2.107534408569336, 1.2751812934875488], "min" : [-1.1089447736740112, -0.264972448348999], "name" : "TEXCOORD_0"}, {"bufferView" : 0, "byteOffset" : 227880, "componentType" : 5123, "count" : 38340, "type" : "SCALAR", "max" : [9830], "min" : [0]}, {"bufferView" : 8, "byteOffset" : 0, "componentType" : 5126, "count" : 9831, "type" : "VEC3", "max" : [38.924068450927734, 6.989901542663574, 44.56694030761719], "min" : [-39.191585540771484, -7.874431133270264, -1.4103946685791016], "name" : "POSITION"}, {"bufferView" : 8, "byteOffset" : 12, "componentType" : 5126, "count" : 9831, "type" : "VEC2", "max" : [1.8768436908721924, 0.6393048763275146], "min" : [-0.8759548664093018, -0.2826869487762451], "name" : "TEXCOORD_0"}, {"bufferView" : 0, "byteOffset" : 304560, "componentType" : 5123, "count" : 30912, "type" : "SCALAR", "max" : [8500], "min" : [0]}, {"bufferView" : 9, "byteOffset" : 0, "componentType" : 5126, "count" : 8501, "type" : "VEC3", "max" : [205.24533081054688, 152.3289794921875, 51.101139068603516], "min" : [-3.734438419342041, -66.64991760253906, 0.0028692169580608606], "name" : "POSITION"}, {"bufferView" : 9, "byteOffset" : 12, "componentType" : 5126, "count" : 8501, "type" : "VEC2", "max" : [23.61613655090332, 20.6856689453125], "min" : [-22.69797706604004, -22.816987991333008], "name" : "TEXCOORD_0"}, {"bufferView" : 0, "byteOffset" : 366384, "componentType" : 5123, "count" : 18, "type" : "SCALAR", "max" : [13], "min" : [0]}, {"bufferView" : 10, "byteOffset" : 0, "componentType" : 5126, "count" : 14, "type" : "VEC3", "max" : [138.892333984375, 150.241455078125, 167.93218994140625], "min" : [-138.892333984375, -150.241455078125, 0], "name" : "POSITION"}, {"bufferView" : 10, "byteOffset" : 12, "componentType" : 5126, "count" : 14, "type" : "VEC2", "max" : [300.48291015625, 1], "min" : [-276.78466796875, -299.48291015625], "name" : "TEXCOORD_0"}], "asset" : {"generator" : "Aspose.3D 25.2.0", "version" : "2.0"}, "buffers" : [{"uri" : "data:application/octet-stream;base64,", "byteLength" : 1376144}], "bufferViews" : [{"buffer" : 0, "byteOffset" : 0, "byteLength" : 366420, "target" : 34963}, {"buffer" : 0, "byteOffset" : 366424, "byteLength" : 20000, "byteStride" : 20, "target" : 34962}, {"buffer" : 0, "byteOffset" : 386428, "byteLength" : 70480, "byteStride" : 20, "target" : 34962}, {"buffer" : 0, "byteOffset" : 456912, "byteLength" : 197880, "byteStride" : 20, "target" : 34962}, {"buffer" : 0, "byteOffset" : 654796, "byteLength" : 126420, "byteStride" : 20, "target" : 34962}, {"buffer" : 0, "byteOffset" : 781220, "byteLength" : 50620, "byteStride" : 20, "target" : 34962}, {"buffer" : 0, "byteOffset" : 831844, "byteLength" : 50440, "byteStride" : 20, "target" : 34962}, {"buffer" : 0, "byteOffset" : 882288, "byteLength" : 126920, "byteStride" : 20, "target" : 34962}, {"buffer" : 0, "byteOffset" : 1009212, "byteLength" : 196620, "byteStride" : 20, "target" : 34962}, {"buffer" : 0, "byteOffset" : 1205836, "byteLength" : 170020, "byteStride" : 20, "target" : 34962}, {"buffer" : 0, "byteOffset" : 1375860, "byteLength" : 280, "byteStride" : 20, "target" : 34962}], "cameras" : [{"perspective" : {"aspectRatio" : 1.3333333333333333, "yfov" : 0.43833943764363487, "zfar" : 1000, "znear" : 0.001}, "type" : "perspective", "name" : "Camera001"}], "materials" : [{"name" : "Grey cloth", "pbrMetallicRoughness" : {"baseColorFactor" : [0.7294117647058823, 0.7294117647058823, 0.7294117647058823, 1], "metallicFactor" : 1, "roughnessFactor" : 1}, "emissiveFactor" : [0, 0, 0], "alphaMode" : "OPAQUE", "doubleSided" : false}, {"name" : "Reflecting wood", "pbrMetallicRoughness" : {"baseColorFactor" : [0.7294117647058823, 0.7294117647058823, 0.7294117647058823, 1], "metallicFactor" : 1, "roughnessFactor" : 1}, "emissiveFactor" : [0, 0, 0], "alphaMode" : "OPAQUE", "doubleSided" : false}, {"name" : "White escene", "pbrMetallicRoughness" : {"baseColorFactor" : [1, 1, 1, 1], "metallicFactor" : 1, "roughnessFactor" : 1}, "emissiveFactor" : [0, 0, 0], "alphaMode" : "OPAQUE", "doubleSided" : false}], "meshes" : [{"primitives" : [{"attributes" : {"POSITION" : 1, "TEXCOORD_0" : 2}, "indices" : 0, "material" : 0, "mode" : 4}], "name" : "Box002"}, {"primitives" : [{"attributes" : {"POSITION" : 4, "TEXCOORD_0" : 5}, "indices" : 3, "material" : 0, "mode" : 4}], "name" : "Box005"}, {"primitives" : [{"attributes" : {"POSITION" : 7, "TEXCOORD_0" : 8}, "indices" : 6, "material" : 0, "mode" : 4}], "name" : "Box006"}, {"primitives" : [{"attributes" : {"POSITION" : 10, "TEXCOORD_0" : 11}, "indices" : 9, "material" : 0, "mode" : 4}], "name" : "Box010"}, {"primitives" : [{"attributes" : {"POSITION" : 13, "TEXCOORD_0" : 14}, "indices" : 12, "material" : 0, "mode" : 4}], "name" : "Box012"}, {"primitives" : [{"attributes" : {"POSITION" : 16, "TEXCOORD_0" : 17}, "indices" : 15, "material" : 0, "mode" : 4}], "name" : "Box017"}, {"primitives" : [{"attributes" : {"POSITION" : 19, "TEXCOORD_0" : 20}, "indices" : 18, "material" : 0, "mode" : 4}], "name" : "Box018"}, {"primitives" : [{"attributes" : {"POSITION" : 22, "TEXCOORD_0" : 23}, "indices" : 21, "material" : 0, "mode" : 4}], "name" : "Box019"}, {"primitives" : [{"attributes" : {"POSITION" : 25, "TEXCOORD_0" : 26}, "indices" : 24, "material" : 1, "mode" : 4}], "name" : "Box020"}, {"primitives" : [{"attributes" : {"POSITION" : 28, "TEXCOORD_0" : 29}, "indices" : 27, "material" : 2, "mode" : 4}], "name" : "Box021"}], "nodes" : [{"matrix" : [-0.7935593724250793, 0, 0, 0, 0, 0, 0.6958325505256653, 0, 0, 0.7954153418540955, 0, 0, 2.07212495803833, 10.035467147827148, 6.38551664352417, 1], "mesh" : 0, "name" : "Box002"}, {"matrix" : [-0.7935593724250793, 0, 0, 0, 0, 0, 0.8463452458381653, 0, 0, 1, 0, 0, -29.835323333740234, 21.370031356811523, 26.649280548095703, 1], "mesh" : 1, "name" : "Box005"}, {"matrix" : [-0.7953000068664551, 0, 0, 0, 0, -0.15136601030826569, 0.7744507789611816, 0, 0, 0.7208883166313171, 0.1408972591161728, 0, -30.144882202148438, 35.40279769897461, 17.273527145385742, 1], "mesh" : 2, "name" : "Box006"}, {"matrix" : [-0.6771903038024902, 0, 0, 0, 0, 0, 0.6877658367156982, 0, 0, 0.7783837914466858, 0, 0, -66.04166412353516, 10.32731819152832, 5.6448259353637695, 1], "mesh" : 3, "name" : "Box010"}, {"matrix" : [-0.7953000068664551, 0, 0, 0, 0, 0, 0.7722650170326233, 0, 0, 1, 0, 0, -30.258041381835938, 20.756853103637695, 1.5091829299926758, 1], "mesh" : 4, "name" : "Box012"}, {"matrix" : [-0.7953000068664551, 0, 0, 0, 0, 0, 0.7722650170326233, 0, 0, 1, 0, 0, 31.317699432373047, 20.756853103637695, 1.5091829299926758, 1], "mesh" : 5, "name" : "Box017"}, {"matrix" : [-0.6771903038024902, 0, 0, 0, 0, 0, 0.6877658367156982, 0, 0, 0.7783837914466858, 0, 0, 66.58958435058594, 10.32731819152832, 5.6448259353637695, 1], "mesh" : 6, "name" : "Box018"}, {"matrix" : [-0.775117814540863, 0, 0, 0, 0, -0.15136601030826569, 0.7744507789611816, 0, 0, 0.7208883166313171, 0.1408972591161728, 0, 31.15009307861328, 35.12334060668945, 17.21890640258789, 1], "mesh" : 7, "name" : "Box019"}, {"matrix" : [0.4014037847518921, -0.1905144453048706, 0.3617938756942749, 0, 0.4315362274646759, 4.842877388000488E-08, -0.38806024193763733, 0, 0.2722915709018707, 0.9420095682144165, 0.24542236328125, 0, -63.76469802856445, 5.774846076965332, -18.51434898376465, 1], "mesh" : 8, "name" : "Box020"}, {"matrix" : [-1, 0, 0, 0, 0, 0, 1, 0, 0, 1, 0, 0, 9.2886962890625, 0, -26.78759765625, 1], "mesh" : 9, "name" : "Box021"}, {"camera" : 0, "matrix" : [1, 0, 0, 0, 0, 1, 0, 0, 0, 0, 1, 0, 118.29520416259766, -167.16844177246094, 39.00471878051758, 1], "name" : "Camera001"}], "scene" : 0, "scenes" : [{"nodes" : [0, 1, 2, 3, 4, 5, 6, 7, 8, 9, 10]}]}